<?xml version="1.0" encoding="UTF-8"?>
<svg version="1.1" xmlns="http://www.w3.org/2000/svg" width="1024" height="1024">
<path d="M0 0 C337.92 0 675.84 0 1024 0 C1024 337.92 1024 675.84 1024 1024 C686.08 1024 348.16 1024 0 1024 C0 686.08 0 348.16 0 0 Z " fill="#0F0F0F" transform="translate(0,0)"/>
<path d="M0 0 C1.39025391 0.01353516 1.39025391 0.01353516 2.80859375 0.02734375 C5.08100077 0.05077063 7.3528618 0.08357252 9.625 0.125 C9.625 0.785 9.625 1.445 9.625 2.125 C10.553125 2.145625 11.48125 2.16625 12.4375 2.1875 C20.16822516 3.30311278 27.6483953 9.11441568 32.34765625 15.17578125 C36.38816261 21.34156924 38.78510183 26.75557089 39.625 34.125 C40.82253906 34.17398438 42.02007812 34.22296875 43.25390625 34.2734375 C52.7163733 34.69399159 61.99605711 35.43910868 71.375 36.81152344 C75.11632076 37.33277516 78.8668206 37.77821796 82.61645508 38.23510742 C105.23296927 40.99414593 105.23296927 40.99414593 113.28125 43.06640625 C118.18355211 44.31206377 123.14299898 45.14172678 128.125 46 C136.24365153 47.4327831 144.19790051 49.15845343 152.171875 51.2421875 C156.62504476 52.38066755 161.1045635 53.29915102 165.625 54.125 C165.625 54.785 165.625 55.445 165.625 56.125 C166.78515625 56.30675781 166.78515625 56.30675781 167.96875 56.4921875 C173.94382059 57.45352312 179.78092579 58.55159541 185.625 60.125 C185.625 60.785 185.625 61.445 185.625 62.125 C186.20040527 62.22151855 186.77581055 62.31803711 187.36865234 62.41748047 C194.56750905 63.72960139 201.33880815 65.87349053 208.25 68.25 C209.34957031 68.62253906 210.44914062 68.99507813 211.58203125 69.37890625 C214.26495 70.28876565 216.94581699 71.20421081 219.625 72.125 C219.625 72.785 219.625 73.445 219.625 74.125 C220.49511719 74.24230469 221.36523438 74.35960937 222.26171875 74.48046875 C225.59872982 75.11996564 228.32561438 76.09193232 231.4375 77.4375 C232.49066406 77.89125 233.54382813 78.345 234.62890625 78.8125 C235.61761719 79.245625 236.60632813 79.67875 237.625 80.125 C238.72134766 80.5890625 238.72134766 80.5890625 239.83984375 81.0625 C246.97934587 84.13207481 253.88637533 87.70656563 260.81689453 91.21582031 C262.35138471 91.98741651 263.895435 92.73995397 265.44140625 93.48828125 C270.17401602 95.92136529 274.76435848 98.59462369 279.375 101.25 C281.26536613 102.33638807 283.15597875 103.42234738 285.046875 104.5078125 C285.87799805 104.98621582 286.70912109 105.46461914 287.56542969 105.95751953 C288.89992502 106.71398666 290.2529591 107.43897955 291.625 108.125 C291.625 108.785 291.625 109.445 291.625 110.125 C292.96111328 110.51558594 292.96111328 110.51558594 294.32421875 110.9140625 C297.58184754 112.10916892 299.69912888 113.403089 302.4375 115.5 C305.79669438 118.02852403 309.16088607 120.51521897 312.625 122.8984375 C321.55491853 129.04984088 329.88573701 135.55497491 338.01269531 142.72753906 C341.4261338 145.68612809 344.97913434 148.4758434 348.515625 151.28515625 C350.625 153.125 350.625 153.125 352.625 156.125 C351.2266978 155.69545619 349.83146093 155.25592966 348.4375 154.8125 C347.66019531 154.56886719 346.88289062 154.32523438 346.08203125 154.07421875 C343.625 153.125 343.625 153.125 341.23828125 151.69140625 C331.5223364 145.86764857 319.79138613 143.21345613 308.9375 140.375 C307.8222998 140.08141602 306.70709961 139.78783203 305.55810547 139.48535156 C298.8768589 137.78531383 292.2388893 136.49935629 285.40966797 135.55200195 C283.018003 135.18526322 280.77226819 134.68069254 278.4375 134.0625 C274.14769761 133.06672234 269.85371639 132.80704072 265.46875 132.578125 C264.67866043 132.53600388 263.88857086 132.49388275 263.07453918 132.45048523 C254.4877756 132.02388926 245.90853281 131.92841566 237.3125 131.9375 C236.11116425 131.93691086 236.11116425 131.93691086 234.88555908 131.93630981 C223.04081762 131.9432345 211.37410853 132.39366406 199.61083984 133.88134766 C196.68409394 134.24044434 193.74993648 134.49569245 190.8125 134.75 C189.98105469 134.82476562 189.14960937 134.89953125 188.29296875 134.9765625 C187.74253906 135.02554688 187.19210937 135.07453125 186.625 135.125 C186.625 135.785 186.625 136.445 186.625 137.125 C188.04039062 137.18107422 188.04039062 137.18107422 189.484375 137.23828125 C196.63049147 137.60419685 203.12327985 138.30174533 210.0390625 140.234375 C215.95376394 141.70338582 221.96567301 142.66456461 227.97290039 143.67895508 C232.45022456 144.45585497 236.43862317 145.30992753 240.625 147.125 C242.72125868 147.63765737 244.82637365 148.11499178 246.9375 148.5625 C251.29027032 149.53736457 255.35520162 150.64024508 259.48046875 152.31640625 C262.25868497 153.3639304 265.08806102 154.16626286 267.9375 155 C273.1863263 156.58798209 278.0498148 158.55285556 283 160.8984375 C289.70577865 164.03179241 296.68799796 166.55573999 303.625 169.125 C303.625 169.785 303.625 170.445 303.625 171.125 C304.8625 171.475625 306.1 171.82625 307.375 172.1875 C313.64659673 174.29428832 319.01749038 177.6657377 324.625 181.125 C325.9371146 181.91340219 327.2496326 182.70113328 328.5625 183.48828125 C336.80498467 188.47888262 344.28596721 193.85576353 351.625 200.125 C353.20510388 201.3583154 354.78845616 202.58748009 356.375 203.8125 C366.3196498 211.77456411 375.77757265 220.44141793 383.6015625 230.51953125 C384.92356795 232.22180467 386.29258538 233.88884769 387.7109375 235.51171875 C399.60717129 249.19024027 408.5800854 265.48960253 415.625 282.125 C416.09292969 283.21683594 416.56085937 284.30867188 417.04296875 285.43359375 C425.74923009 306.89117939 428.86674539 328.38394746 428.9375 351.375 C428.94045074 352.21693909 428.94340149 353.05887817 428.94644165 353.92633057 C428.95948097 370.29242603 427.70700736 385.79339578 421.625 401.125 C421.18800781 402.31480469 420.75101563 403.50460937 420.30078125 404.73046875 C415.4066909 417.58972621 408.66325505 428.70050951 399.625 439.125 C399.10808594 439.74890625 398.59117187 440.3728125 398.05859375 441.015625 C389.55418911 450.47917302 374.87509348 457.29805535 362.625 460.125 C359.6875 460.25 359.6875 460.25 357.625 460.125 C357.625 460.785 357.625 461.445 357.625 462.125 C343.38379014 465.32948528 329.54909856 466.54293161 315 466.5625 C314.24126587 466.56822021 313.48253174 466.57394043 312.70080566 466.57983398 C300.01713752 466.64701951 287.56000883 465.76699274 276.125 459.75 C275.0215625 459.18539063 273.918125 458.62078125 272.78125 458.0390625 C263.08830448 452.16091485 259.05667085 445.31541325 255.875 434.6875 C255.66415771 433.98399414 255.45331543 433.28048828 255.23608398 432.55566406 C252.39846406 422.48030999 252.41039451 412.32913043 252.38476562 401.9440918 C252.37512062 399.59191683 252.34404689 397.24064062 252.3125 394.88867188 C252.24062791 384.62275013 253.33643547 375.12643343 255.625 365.125 C255.83012207 364.21806396 256.03524414 363.31112793 256.24658203 362.37670898 C256.74063293 360.28416723 257.26503232 358.20409905 257.8125 356.125 C257.98974609 355.4340625 258.16699219 354.743125 258.34960938 354.03125 C258.77012691 352.3946412 259.19678398 350.75961139 259.625 349.125 C260.285 349.125 260.945 349.125 261.625 349.125 C261.75648438 347.64193359 261.75648438 347.64193359 261.890625 346.12890625 C262.53317454 341.66363628 264.31726479 338.03801416 266.375 334.0625 C266.87773438 333.0405957 266.87773438 333.0405957 267.390625 331.99804688 C269.66632421 327.51129899 272.27550517 323.87854228 275.625 320.125 C252.58386376 329.2845628 240.63623904 345.90715928 231 368 C225.54738893 381.52733766 223.05492504 395.61850284 220.26611328 409.86914062 C212.28539409 450.3987945 212.28539409 450.3987945 200.625 460.125 C192.52374241 465.32521289 185.36883124 466.32121255 175.9375 466.3125 C174.59546509 466.3112915 174.59546509 466.3112915 173.22631836 466.31005859 C165.27713285 466.23618006 157.91444768 465.52674225 150.625 462.125 C150.625 461.465 150.625 460.805 150.625 460.125 C149.965 460.08375 149.305 460.0425 148.625 460 C141.61498384 457.95541195 135.15559996 451.73491186 130.625 446.125 C129.1875 442.6875 129.1875 442.6875 128.625 440.125 C127.965 440.125 127.305 440.125 126.625 440.125 C125.78513916 438.19032058 124.95331973 436.25214871 124.125 434.3125 C123.42890625 432.69408203 123.42890625 432.69408203 122.71875 431.04296875 C121.625 428.125 121.625 428.125 121.625 425.125 C120.965 425.125 120.305 425.125 119.625 425.125 C117.75582827 419.85393572 116.20364421 414.66476831 115.15234375 409.16796875 C114.70974677 407.10445357 114.70974677 407.10445357 113.64306641 405.34106445 C112.44142514 402.72540551 112.13297897 400.48323953 111.80859375 397.625 C111.68419922 396.573125 111.55980469 395.52125 111.43164062 394.4375 C111.24891602 392.7978125 111.24891602 392.7978125 111.0625 391.125 C110.81335578 388.95808414 110.56213753 386.79140549 110.30859375 384.625 C110.20087646 383.6659375 110.09315918 382.706875 109.98217773 381.71875 C109.70158303 379.2270167 109.70158303 379.2270167 109.0949707 377.27685547 C108.36689824 373.94322914 108.44191696 370.59237923 108.421875 367.1953125 C108.41169342 366.02654572 108.41169342 366.02654572 108.40130615 364.83416748 C108.38430538 362.30607125 108.37810356 359.77814974 108.375 357.25 C108.37266357 356.39440491 108.37032715 355.53880981 108.36791992 354.6572876 C108.3554544 342.5971747 108.91081492 330.90230348 110.96875 318.9921875 C111.73653675 315.12147558 111.73653675 315.12147558 111.625 311.125 C102.27519358 319.74729987 96.76839718 330.22095969 92.5625 342.125 C92.30500977 342.85340088 92.04751953 343.58180176 91.78222656 344.33227539 C89.23516699 351.82092106 87.91182033 359.33345984 86.625 367.125 C86.29963026 368.63573037 85.97268443 370.14612179 85.64453125 371.65625 C84.2739304 378.44040246 83.68687621 385.30221913 83.0625 392.1875 C82.99741241 392.88420807 82.93232483 393.58091614 82.86526489 394.29873657 C81.98173485 403.79969923 81.36625849 413.27272248 81.0625 422.8125 C80.215625 447.82091563 80.215625 447.82091563 72.625 457.125 C69.20183696 460.19086319 65.67727213 462.28892685 61.5625 464.3125 C60.54027344 464.82167969 59.51804687 465.33085938 58.46484375 465.85546875 C46.5116736 471.1990455 32.20293551 468.31707593 20.39257812 463.87792969 C16.57047213 462.24983923 13.56972826 460.01604832 10.625 457.125 C9.7175 456.279375 8.81 455.43375 7.875 454.5625 C7.1325 453.758125 6.39 452.95375 5.625 452.125 C4.944375 451.403125 4.26375 450.68125 3.5625 449.9375 C-1.10766951 443.15822168 -3.20568718 434.95033287 -5 427 C-5.21237305 426.05987061 -5.42474609 425.11974121 -5.64355469 424.15112305 C-7.72043573 414.39219714 -8.6130599 404.58800804 -9.17474365 394.63842773 C-9.31533566 392.17179003 -9.46603325 389.70571751 -9.62417603 387.24014282 C-10.4524883 373.76285716 -10.52135003 360.3155144 -10.5078125 346.81640625 C-10.50848904 344.39631643 -10.50946195 341.97622668 -10.51071167 339.55613708 C-10.512177 334.50087838 -10.51007507 329.44563747 -10.50537109 324.39038086 C-10.50084396 319.28555128 -10.50077466 314.18075725 -10.50537109 309.07592773 C-10.51721511 295.68592655 -10.50543227 282.29666025 -10.42583084 268.90685463 C-10.38937858 262.76632097 -10.37560028 256.62669783 -10.38939857 250.48608112 C-10.38971432 247.11683959 -10.36137371 243.74837742 -10.32271957 240.37937737 C-10.31093663 238.88329566 -10.31069703 237.38706653 -10.32349014 235.89099312 C-10.39744572 226.24127607 -9.07119091 221.087011 -2.375 214.125 C13.82535886 190.75199366 16.22440831 160.69778248 15.625 133.125 C15.4290625 133.67285156 15.233125 134.22070312 15.03125 134.78515625 C10.33791689 147.22653497 3.92863095 158.7332261 -4.375 169.125 C-5.00019531 169.91519531 -5.62539063 170.70539063 -6.26953125 171.51953125 C-18.55704241 186.20948859 -37.50238709 195.56666174 -56.375 198.125 C-59.65243053 198.27751635 -62.92642662 198.28891248 -66.20703125 198.29296875 C-67.15704514 198.29629715 -68.10705902 198.29962555 -69.08586121 198.30305481 C-71.09719359 198.3081073 -73.10853432 198.31046365 -75.11987305 198.31030273 C-78.13930877 198.31246548 -81.15836436 198.33057298 -84.17773438 198.34960938 C-95.04193625 198.3819588 -105.60094181 197.93404611 -116.35708618 196.40420532 C-119.13786102 196.01944799 -121.92457172 195.69539882 -124.7129364 195.37101746 C-127.47644466 195.04899929 -130.23804422 194.7120269 -132.99975586 194.375 C-134.39432952 194.20598078 -135.78919787 194.03937825 -137.18432617 193.875 C-139.25255346 193.63092201 -141.31966249 193.37878138 -143.38671875 193.125 C-144.58772217 192.980625 -145.78872559 192.83625 -147.02612305 192.6875 C-150.31320741 192.1353791 -153.2398168 191.23767441 -156.375 190.125 C-158.11910144 189.799916 -159.86965041 189.50752135 -161.625 189.25 C-167.23538209 188.29569632 -172.19468516 186.43984785 -177.375 184.125 C-177.375 183.465 -177.375 182.805 -177.375 182.125 C-178.035 182.08375 -178.695 182.0425 -179.375 182 C-191.24779295 178.53710206 -199.42412762 165.97317879 -205.25 155.875 C-206.4576205 152.92303878 -206.78258451 151.27273097 -206.375 148.125 C-204.65234375 146.60546875 -204.65234375 146.60546875 -202.3125 145.3125 C-196.95100883 142.05156145 -192.22173845 137.8184769 -189.375 132.125 C-188.715 132.125 -188.055 132.125 -187.375 132.125 C-187.25125 131.465 -187.1275 130.805 -187 130.125 C-186.37965496 127.14734383 -185.60556014 124.23039117 -184.81420898 121.29443359 C-184.35491579 119.02579585 -184.3599445 116.97375254 -184.34765625 114.6640625 C-184.04444767 111.85866394 -183.86293639 110.57769076 -181.77294922 108.63867188 C-179.50342074 107.34240462 -177.2137901 106.28190199 -174.8125 105.25 C-173.05980493 104.41458485 -171.31114696 103.57065277 -169.56640625 102.71875 C-168.68871582 102.29335938 -167.81102539 101.86796875 -166.90673828 101.4296875 C-163.14371671 99.49047947 -159.70169935 97.19206311 -156.25 94.75 C-155.60683838 94.29584717 -154.96367676 93.84169434 -154.30102539 93.3737793 C-152.99232238 92.44216297 -151.68625659 91.50683119 -150.3828125 90.56787109 C-148.2963761 89.06849863 -146.19712912 87.58877892 -144.09375 86.11328125 C-138.62368147 82.27347148 -133.15713592 78.42964495 -127.75390625 74.49609375 C-109.74388975 61.40412882 -90.53538109 49.37208476 -69.375 42.125 C-68.33730469 41.74601562 -67.29960937 41.36703125 -66.23046875 40.9765625 C-60.21932532 38.84430785 -54.70609174 37.66515267 -48.375 37.125 C-44.9572985 37.07002465 -44.9572985 37.07002465 -42.375 35.125 C-41.4139577 32.21441475 -40.82068012 29.2984801 -40.203125 26.296875 C-38.02066433 17.93763884 -31.28030322 10.0650625 -23.91796875 5.65234375 C-21.42943963 4.37263537 -18.96164615 3.1924413 -16.375 2.125 C-15.49714844 1.75246094 -14.61929688 1.37992187 -13.71484375 0.99609375 C-9.10632293 -0.20589472 -4.73881452 -0.08788101 0 0 Z " fill="#FDFDFD" transform="translate(382.375,268.875)"/>
<path d="M0 0 C6.03003446 3.22277472 11.30243824 7.32709497 13.8203125 13.90234375 C15.51954558 21.16030828 15.12688273 28.59015874 11.32421875 35.0546875 C7.69301042 40.37140998 3.60503682 44.23854733 -2.67578125 46.0546875 C-9.29287059 46.90476613 -15.86641451 46.55991722 -21.67578125 43.0546875 C-25.49610787 39.92896572 -28.83045941 36.70382359 -30.67578125 32.0546875 C-30.67578125 30.7346875 -30.67578125 29.4146875 -30.67578125 28.0546875 C-31.33578125 28.0546875 -31.99578125 28.0546875 -32.67578125 28.0546875 C-33.42276575 20.25284936 -32.19789967 14.52879948 -27.67578125 8.0546875 C-20.00180448 -0.16634504 -11.24266732 -3.97186203 0 0 Z " fill="#050505" transform="translate(323.67578125,335.9453125)"/>
<path d="M0 0 C0.33 0 0.66 0 1 0 C1 6.27 1 12.54 1 19 C0.67 19 0.34 19 0 19 C-0.33 15.37 -0.66 11.74 -1 8 C-1.99 8.66 -2.98 9.32 -4 10 C-3.52449439 8.51965236 -3.04448784 7.04074979 -2.5625 5.5625 C-2.29566406 4.73878906 -2.02882813 3.91507812 -1.75390625 3.06640625 C-1 1 -1 1 0 0 Z " fill="#3E3E3E" transform="translate(398,401)"/>
<path d="M0 0 C0 0.66 0 1.32 0 2 C2.31 2 4.62 2 7 2 C7 2.33 7 2.66 7 3 C3.04 3 -0.92 3 -5 3 C-5 2.34 -5 1.68 -5 1 C-2 0 -2 0 0 0 Z " fill="#A6A6A6" transform="translate(569,404)"/>
</svg>
